<svg width="35" height="35" fill="none" xmlns="http://www.w3.org/2000/svg"><circle cx="17.5" cy="17.5" r="17.5" fill="#fff"/><path d="M16.998 13.88a4.091 4.091 0 0 0-4.105 4.089 4.091 4.091 0 0 0 4.105 4.089 4.091 4.091 0 0 0 4.104-4.09 4.091 4.091 0 0 0-4.104-4.088zm0 6.746a2.668 2.668 0 0 1-2.668-2.657 2.668 2.668 0 0 1 5.336 0 2.668 2.668 0 0 1-2.668 2.657zm4.273-7.866a.956.956 0 1 0 0 1.91.954.954 0 1 0 0-1.91zm3.728 5.209c0-1.1.01-2.191-.052-3.29-.062-1.275-.354-2.408-1.29-3.34-.94-.936-2.074-1.225-3.355-1.287-1.105-.061-2.2-.051-3.302-.051-1.105 0-2.2-.01-3.302.051-1.281.062-2.418.353-3.354 1.286-.94.935-1.23 2.066-1.291 3.342C8.99 15.78 9 16.87 9 17.969c0 1.098-.01 2.19.052 3.29.062 1.275.354 2.407 1.29 3.34.94.936 2.074 1.225 3.355 1.286 1.104.062 2.2.052 3.302.052 1.105 0 2.2.01 3.302-.052 1.28-.061 2.418-.353 3.354-1.286.939-.934 1.229-2.065 1.291-3.34.064-1.1.052-2.19.052-3.29zm-1.761 4.7a2.533 2.533 0 0 1-.604.914 2.563 2.563 0 0 1-.917.602c-1.053.417-3.552.323-4.72.323-1.166 0-3.668.094-4.72-.321a2.545 2.545 0 0 1-.917-.602 2.55 2.55 0 0 1-.604-.913c-.417-1.05-.322-3.54-.322-4.703 0-1.162-.095-3.654.322-4.703.146-.363.322-.634.604-.913a2.59 2.59 0 0 1 .917-.602c1.052-.415 3.554-.321 4.72-.321 1.168 0 3.67-.094 4.722.32.364.146.636.322.917.603.282.281.458.55.604.913.416 1.049.322 3.54.322 4.703 0 1.162.094 3.652-.324 4.7z" fill="#2E2E2E"/></svg>