<svg width="110" height="30" fill="none" xmlns="http://www.w3.org/2000/svg"><path d="M37.338 6.791c-1.236 0-2.374.473-3.019 1.106-1.02.989-1.385 2.149-1.385 4.738H31.44v.44h1.494v8.884c0 1.225-.376 1.58-1.408 1.58V24c.559-.021 1.74-.086 2.858-.086 1.525 0 3.03.064 3.792.086v-.462c-1.3 0-2.074-.376-2.074-1.805v-8.658h2.353v-.44h-2.352v-1.998c0-1.698.107-2.428.408-2.868.236-.355.623-.58 1.192-.58.43 0 .698.14.795.311-.849.247-1.289.88-1.289 1.633 0 .977.688 1.568 1.676 1.568.924 0 1.557-.72 1.557-1.536 0-.73-.333-1.3-.752-1.644-.59-.44-1.332-.73-2.352-.73zm4.361 14.115c-1.15 0-1.869.645-1.869 1.708 0 1.053.72 1.697 1.87 1.697 1.149 0 1.88-.644 1.88-1.697 0-1.063-.731-1.708-1.88-1.708zm11.408-8.593c-1.557 0-2.803.74-3.416 2.137v-2.062c-.913.225-1.987.311-3.212.311-.44 0-.902-.021-1.364-.064v.462c1.064 0 1.407.612 1.407 1.933v10.99c0 1.17-.354 1.503-1.32 1.503v.462c.547-.021 1.696-.096 2.77-.096 1.494 0 2.955.075 3.696.096v-.462c-1.235 0-1.977-.354-1.977-1.718v-2.203c.548.462 1.354.71 2.256.71 3.083 0 5.092-2.235 5.092-6.51 0-3.663-1.697-5.49-3.932-5.49zm-2.02 11.397c-.59 0-1.073-.215-1.396-.59v-7.918c.269-1.246 1.16-1.944 2.127-1.944 1.15 0 1.902 1.235 1.902 4.973 0 3.384-.677 5.479-2.632 5.479zm12.57-11.398c-1.483 0-2.557.312-3.342.753-.72.418-1.235 1.03-1.235 1.836 0 .967.602 1.698 1.558 1.698 1.085 0 1.794-.666 1.794-1.58 0-.891-.516-1.46-1.3-1.729.397-.387 1.042-.537 1.568-.537 1.3 0 1.794.816 1.794 1.966v1.719c0 .945-1.267 1.364-2.89 1.976-2.04.752-3.093 1.644-3.093 3.233 0 1.601 1.138 2.503 2.782 2.503 1.235 0 2.492-.547 3.244-1.783.01.945.505 1.783 2.116 1.783 1.117 0 1.848-.268 2.514-.805l-.226-.376c-.247.193-.494.376-.805.376-.355 0-.473-.269-.473-.978v-5.983c0-1.536-.14-2.417-.784-3.083-.71-.73-1.805-.989-3.223-.989zm.837 9.54c-.462.655-.945.891-1.482.891-.785 0-1.375-.494-1.375-1.708 0-1.321.72-2.04 1.493-2.61.741-.462 1.16-.752 1.364-1.085v4.512zM74.27 6.78c-.913.215-1.987.301-3.211.301-.44 0-.903-.021-1.365-.064v.462c1.064 0 1.408.623 1.408 1.944v12.536c0 1.225-.376 1.58-1.408 1.58V24c.591-.021 1.902-.086 3.051-.086 1.139 0 2.374.064 2.933.086v-.462c-1.02 0-1.408-.354-1.408-1.579V6.78zm7.627 5.532c-1.482 0-2.556.312-3.34.753-.72.418-1.236 1.03-1.236 1.836 0 .967.602 1.698 1.558 1.698 1.085 0 1.794-.666 1.794-1.58 0-.891-.516-1.46-1.3-1.729.397-.387 1.042-.537 1.568-.537 1.3 0 1.794.816 1.794 1.966v1.719c0 .945-1.267 1.364-2.89 1.976-2.04.752-3.093 1.644-3.093 3.233 0 1.601 1.139 2.503 2.782 2.503 1.236 0 2.492-.547 3.244-1.783.011.945.505 1.783 2.117 1.783 1.117 0 1.847-.268 2.513-.805l-.225-.376c-.247.193-.495.376-.806.376-.355 0-.473-.269-.473-.978v-5.983c0-1.536-.14-2.417-.784-3.083-.709-.73-1.805-.989-3.222-.989zm.838 9.54c-.462.655-.945.891-1.482.891-.784 0-1.375-.494-1.375-1.708 0-1.321.72-2.04 1.493-2.61.741-.462 1.16-.752 1.364-1.085v4.512zm11.011-9.54c-3.115 0-5.435 2.085-5.435 6.06 0 4.124 2.255 5.94 5.124 5.94 2.513 0 3.867-1.827 4.372-3.47l-.387-.14c-.892 1.472-2.063 1.794-2.879 1.794-1.45 0-2.911-1.02-2.911-4.436 0-2.987.956-5.21 2.782-5.21.58 0 1.096.225 1.321.526-.784.215-1.45.88-1.45 1.805 0 .988.656 1.633 1.698 1.633 1.01 0 1.74-.731 1.74-1.773 0-.87-.473-1.6-1.214-2.052-.634-.397-1.622-.677-2.76-.677zm11.677 10.184c-1.397 0-2.868-1.192-2.868-4.254 0-.354.01-.72.043-1.042h6.155c0-3.448-1.568-4.887-4.136-4.887-3.126 0-5.382 2.03-5.382 6.112 0 4.017 2.106 5.886 5.071 5.886 2.438 0 3.878-1.772 4.404-3.426l-.397-.15c-.892 1.46-2.009 1.761-2.89 1.761zm-.935-9.71c1.075 0 1.536 1.847 1.493 3.995h-3.448c.183-2.846.967-3.996 1.955-3.996z" fill="#2E2E2E"/><g clip-path="url(#a)"><path d="m17.702 12.426-.267-.88a1.912 1.912 0 0 0-3.622 0l-.268.88a4.945 4.945 0 0 0-.137 2.291 2.156 2.156 0 0 0 1.11 1.502l-.3 6.698c-.04.373.081.747.333 1.025a1.455 1.455 0 0 0 2.149 0c.246-.27.367-.633.333-.997l-.301-6.726a2.155 2.155 0 0 0 1.108-1.502 4.946 4.946 0 0 0-.138-2.291zm-.683 2.146c-.09.463-.42.842-.864.996a.416.416 0 0 0-.27.409l.317 7.033a.482.482 0 0 1-.125.378.644.644 0 0 1-.906 0 .5.5 0 0 1-.123-.405l.315-7.006a.417.417 0 0 0-.27-.41 1.321 1.321 0 0 1-.865-.995 4.108 4.108 0 0 1 .115-1.902l.268-.88a1.08 1.08 0 0 1 2.026 0l.268.88c.186.616.226 1.268.114 1.902zM11.25 10.25a.417.417 0 0 0-.418.417v3.577l-1.127 1.128a.417.417 0 0 0-.122.316l.364 7.291a.568.568 0 0 1-.157.425.587.587 0 0 1-.83.003l-.004-.003a.568.568 0 0 1-.157-.425l.367-7.291a.417.417 0 0 0-.122-.316l-1.128-1.128v-3.577a.417.417 0 0 0-.833 0v3.75c0 .11.043.216.122.294l1.119 1.12-.356 7.108a1.407 1.407 0 1 0 2.812 0l-.355-7.108 1.119-1.12a.417.417 0 0 0 .122-.294v-3.75a.417.417 0 0 0-.417-.417z" fill="#FF9401"/><path d="M8.75 10.25a.417.417 0 0 0-.417.417V14a.417.417 0 0 0 .833 0v-3.333a.417.417 0 0 0-.417-.417zM10 10.25a.417.417 0 0 0-.417.417V14a.417.417 0 0 0 .833 0v-3.333a.417.417 0 0 0-.417-.417z" fill="#FF9401"/><path d="M12.5 4C5.596 4 0 9.596 0 16.5S5.596 29 12.5 29 25 23.404 25 16.5C24.992 9.6 19.4 4.008 12.5 4zm0 24.167C6.057 28.167.833 22.943.833 16.5S6.057 4.833 12.5 4.833 24.167 10.057 24.167 16.5c-.008 6.44-5.227 11.66-11.667 11.667z" fill="#2E2E2E"/><path d="M13.852 24.322a.417.417 0 0 0-.47-.373 7.657 7.657 0 0 1-1.765 0 .417.417 0 1 0-.097.828c.65.076 1.308.076 1.958 0a.417.417 0 0 0 .374-.456zM18.875 11.13a.417.417 0 0 0-.587-.05h-.002a.417.417 0 0 0-.05.588 7.5 7.5 0 0 1-.442 10.145.417.417 0 1 0 .588.59 8.333 8.333 0 0 0 .493-11.272zM14.467 8.4a8.407 8.407 0 0 0-4.905.301.417.417 0 0 0 .292.78 7.57 7.57 0 0 1 4.417-.271.417.417 0 1 0 .196-.81zM7.186 21.791A7.452 7.452 0 0 1 5 16.5a7.445 7.445 0 0 1 1.434-4.412.417.417 0 1 0-.673-.49 8.333 8.333 0 0 0 .836 10.783.417.417 0 0 0 .59-.59z" fill="#2E2E2E"/></g><defs><clipPath id="a"><path fill="#fff" transform="translate(0 4)" d="M0 0h25v25H0z"/></clipPath></defs></svg>