<svg width="91" height="90" fill="none" xmlns="http://www.w3.org/2000/svg"><path d="M45.5 3.132c-23.558 0-42.656 18.686-42.656 41.723 0 23.048 19.098 41.735 42.656 41.735 23.555 0 42.656-18.687 42.656-41.735 0-23.045-19.101-41.723-42.656-41.723zm31.492 65.96a7.776 7.776 0 0 1-2.56 1.692c-.961.39-1.992.588-3.033.581-3.37 0-7.06-1.866-10.67-5.398-1.413-1.381-2.668-2.612-3.251-3.341a26.32 26.32 0 0 0 6.292-3.974l10.792 8.063-8.25-10.572a22.703 22.703 0 0 0 3.89-6.276c.71.488 2.063 1.81 3.596 3.31 6.002 5.873 7.225 11.97 3.194 15.914zm-1.18-17.883c-2.37-2.318-3.645-3.56-4.745-4.053.058-1.418-1.874-1.96-2.66-.878-6.154 8.495-13.439 10.634-22.907 10.634s-16.753-2.138-22.908-10.634c-.857-1.182-3.114-.438-2.615 1.278 3.232 11.135 14.22 17.62 25.523 17.62a29.522 29.522 0 0 0 9.268-1.508c.607.99 1.845 2.203 3.951 4.265 3.909 3.822 8.02 5.926 11.94 6.166-6.805 5.616-15.581 9.013-25.159 9.013-21.561 0-39.102-17.162-39.102-38.257 0-21.088 17.54-38.246 39.102-38.246 21.56 0 39.102 17.158 39.102 38.246a37.305 37.305 0 0 1-3.085 14.867c-.855-2.638-2.641-5.513-5.706-8.513z" fill="#2E2E2E"/><path d="M29.952 24.255c-3.983 0-7.966 3.558-10.607 10.667-.262.716 1.1 2.007 1.783 1.305 2.562-2.645 5.626-3.697 8.825-3.697 3.2 0 6.262 1.052 8.826 3.697.681.702 2.045-.59 1.783-1.305-2.645-7.11-6.627-10.667-10.61-10.667zM61.048 24.255c-3.982 0-7.965 3.558-10.608 10.667-.262.716 1.102 2.007 1.783 1.305 2.564-2.645 5.626-3.697 8.825-3.697 3.2 0 6.262 1.052 8.826 3.697.681.702 2.045-.59 1.783-1.305-2.645-7.11-6.627-10.667-10.608-10.667z" fill="#FF9401"/></svg>