<svg width="101" height="101" fill="none" xmlns="http://www.w3.org/2000/svg"><path d="M80.484 79.695c-3.471 0-6.312 2.84-6.312 6.313 0 3.472 2.84 6.312 6.312 6.312 3.472 0 6.313-2.84 6.313-6.312 0-3.472-2.84-6.313-6.313-6.313zm0 9.47a3.166 3.166 0 0 1-3.156-3.157 3.166 3.166 0 0 1 3.156-3.156 3.165 3.165 0 0 1 3.157 3.156 3.166 3.166 0 0 1-3.157 3.156zM20.516 79.695c-3.472 0-6.313 2.84-6.313 6.313 0 3.472 2.84 6.312 6.313 6.312 3.472 0 6.312-2.84 6.312-6.312 0-3.472-2.84-6.313-6.312-6.313zm0 9.47a3.166 3.166 0 0 1-3.157-3.157 3.165 3.165 0 0 1 3.157-3.156 3.166 3.166 0 0 1 3.156 3.156 3.166 3.166 0 0 1-3.156 3.156z" fill="#FF9401"/><path d="M1.578 87.586H8.01c.789 6.214 6.095 11.047 12.507 11.047 6.41 0 11.737-4.833 12.506-11.047h34.936c.79 6.214 6.096 11.047 12.507 11.047 6.41 0 11.737-4.833 12.506-11.047h6.45c.869 0 1.579-.71 1.579-1.578V59.179c0-.039-.02-.078-.02-.118 0-.098-.039-.197-.059-.296-.039-.098-.059-.197-.118-.296-.02-.039-.02-.078-.04-.098L88.138 37.855c-.04-.059-.079-.079-.118-.118a2.367 2.367 0 0 0-.217-.237 1.64 1.64 0 0 0-.237-.158c-.079-.04-.177-.098-.276-.118a.895.895 0 0 0-.316-.06c-.059 0-.118-.039-.177-.039H66.28c-.868 0-1.578.71-1.578 1.578V59.18h-5.602a6.11 6.11 0 0 0 .868-3.157h1.578c.868 0 1.578-.71 1.578-1.578 0-.868-.71-1.578-1.578-1.578h-1.578v-3.136c0-14.203-10.475-25.96-24.106-28.052a4.638 4.638 0 0 0 .434-1.952 4.748 4.748 0 0 0-4.734-4.735 4.748 4.748 0 0 0-4.735 4.735c0 .71.158 1.36.434 1.953-13.63 2.09-24.106 13.848-24.106 28.05v3.137H1.578c-.868 0-1.578.71-1.578 1.578 0 .868.71 1.578 1.578 1.578h1.578c0 1.145.336 2.23.868 3.157H1.578C.71 59.18 0 59.89 0 60.758v25.25c0 .868.71 1.578 1.578 1.578zm64.703-14.203c.868 0 1.578-.71 1.578-1.578V40.242h18.05l11.935 19.391V84.43H92.99c-.789-6.213-6.096-11.046-12.507-11.046-6.41 0-11.737 4.833-12.506 11.047H33.022c-.789-6.214-6.095-11.047-12.506-11.047-6.411 0-11.738 4.833-12.507 11.047H3.156V68.648h61.547v3.157c0 .868.71 1.578 1.578 1.578zM20.516 95.477c-5.228 0-9.47-4.242-9.47-9.47 0-5.227 4.242-9.468 9.47-9.468 5.227 0 9.468 4.241 9.468 9.469 0 5.227-4.24 9.469-9.468 9.469zm59.968 0c-5.227 0-9.468-4.242-9.468-9.47 0-5.227 4.24-9.468 9.468-9.468s9.47 4.241 9.47 9.469c0 5.227-4.242 9.469-9.47 9.469zm-15.78-29.985H3.155v-3.156H64.703v3.156zM31.562 18.148c.868 0 1.578.71 1.578 1.579 0 .867-.71 1.578-1.578 1.578-.868 0-1.579-.71-1.579-1.578 0-.868.71-1.579 1.578-1.579zm0 6.333c13.927 0 25.25 11.323 25.25 25.25v3.136h-50.5v-3.136c0-13.927 11.323-25.25 25.25-25.25zM6.313 56.023h50.5c0 1.736-1.401 3.137-3.117 3.157H9.429a3.157 3.157 0 0 1-3.117-3.157z" fill="#2E2E2E"/><path d="M71.016 57.602H91.53c.178 0 .355-.04.533-.119.06-.02.099-.04.138-.059.04-.02.099-.04.138-.06.06-.039.079-.078.118-.118.08-.059.158-.138.237-.217.06-.079.119-.157.158-.236.04-.08.099-.178.118-.276a.895.895 0 0 0 .06-.316c0-.06.039-.118.039-.178 0-.04-.02-.079-.02-.118 0-.099-.04-.197-.059-.316-.04-.098-.06-.197-.118-.295-.02-.04-.02-.08-.04-.1L85.061 42.57c-.04-.06-.079-.079-.118-.138-.06-.08-.119-.158-.198-.217-.079-.08-.177-.119-.256-.178l-.237-.118c-.118-.04-.237-.06-.355-.079-.06 0-.099-.04-.158-.04H71.016c-.868 0-1.579.71-1.579 1.579v12.625c0 .887.71 1.598 1.579 1.598zM82.89 44.977l5.82 9.468h-9.805v-9.468h3.985zm-7.141 9.468h-3.156v-9.468h3.156v9.468z" fill="#2E2E2E"/><path d="M71.016 67.07h1.578c.868 0 1.578-.71 1.578-1.578 0-.868-.71-1.578-1.578-1.578h-1.578c-.868 0-1.579.71-1.579 1.578 0 .868.71 1.578 1.579 1.578zM31.543 30.773c10.455 0 18.957 8.503 18.957 18.958 0 .868.71 1.578 1.578 1.578.868 0 1.578-.71 1.578-1.578 0-12.191-9.922-22.114-22.113-22.114-.868 0-1.578.71-1.578 1.578 0 .868.71 1.578 1.578 1.578zM14.677 19.273c.315.316.71.454 1.124.454.414 0 .809-.158 1.124-.454 1.44-1.44 3.314-5.208.119-9.212-2.13-2.644-.474-4.636-.099-5.011a1.584 1.584 0 0 0 0-2.229 1.584 1.584 0 0 0-2.229 0c-1.44 1.44-3.314 5.208-.118 9.212 2.13 2.663.453 4.636.118 5.01-.67.612-.67 1.599-.04 2.23zM46.22 19.273c.315.316.71.454 1.124.454.414 0 .809-.158 1.124-.454 1.44-1.44 3.314-5.208.118-9.212-2.13-2.644-.473-4.636-.098-5.011a1.584 1.584 0 0 0 0-2.229 1.584 1.584 0 0 0-2.23 0c-1.44 1.44-3.313 5.208-.118 9.212 2.13 2.663.454 4.636.119 5.01-.651.612-.651 1.599-.04 2.23zM32.687 2.821a1.584 1.584 0 0 0-2.23 0c-1.44 1.44-3.313 5.208-.118 9.212.316.395.77.592 1.243.592.355 0 .69-.118.986-.355.671-.552.79-1.539.237-2.21-2.13-2.643-.473-4.635-.098-5.01a1.602 1.602 0 0 0-.02-2.229z" fill="#FF9401"/></svg>