<svg width="90" height="90" fill="none" xmlns="http://www.w3.org/2000/svg"><path d="M89.894 26.93c-.035-.088-.087-.159-.14-.246-.053-.07-.088-.159-.14-.211-.071-.07-.159-.123-.247-.194-.053-.035-.105-.088-.158-.123L45.615 5.063c-.035-.018-.053-.018-.088-.018a1.315 1.315 0 0 0-.28-.07 1.357 1.357 0 0 0-.265-.036c-.087 0-.175.018-.263.036a1.465 1.465 0 0 0-.264.07c-.035.018-.053 0-.088.018l-20.46 9.914v-3.024a1.41 1.41 0 0 0 1.405-1.406V6.328a1.41 1.41 0 0 0-1.406-1.406H11.25a1.41 1.41 0 0 0-1.406 1.406v4.219a1.41 1.41 0 0 0 1.406 1.406v9.14L.791 26.157c-.07.035-.105.088-.158.123a.854.854 0 0 0-.246.194c-.053.07-.106.14-.14.21a.822.822 0 0 0-.142.247.82.82 0 0 0-.052.299c-.018.052-.053.123-.053.193v5.66c0 .088.035.176.053.281.017.088.035.194.07.264v.035c.07.14.158.264.264.352.017.017.052.035.07.07.105.088.211.158.316.21.036.019.088.036.123.054.159.052.317.087.475.105h.018c.21 0 .386-.053.562-.123h.035l2.198-1.055v50.397a1.41 1.41 0 0 0 1.406 1.406h78.75a1.41 1.41 0 0 0 1.406-1.406V33.258l2.197 1.072h.035c.176.088.37.123.563.123h.018c.158 0 .334-.035.474-.105a.855.855 0 0 0 .123-.053.997.997 0 0 0 .317-.211c.017-.018.052-.035.07-.07.105-.106.193-.229.264-.352v-.035c.035-.088.052-.176.07-.264.017-.088.053-.175.053-.281v-5.66c0-.07-.036-.14-.036-.211.053-.088.036-.193 0-.281zM45.615 10.688c-.035-.018-.053-.018-.088-.018a1.32 1.32 0 0 0-.28-.07 1.355 1.355 0 0 0-.265-.035c-.087 0-.175.017-.263.035a1.471 1.471 0 0 0-.264.07c-.035.018-.053 0-.088.018L2.813 30.797V28.3L45 7.893 87.188 28.3v2.496l-41.573-20.11zM12.656 7.733H22.5v1.407h-9.844V7.734zm1.406 4.22h7.032v4.376l-7.032 3.41v-7.787zM82.97 82.265H7.03v-50.38L45 13.519l37.969 18.369v50.379z" fill="#2E2E2E"/><path d="M45 34.453c-10.863 0-19.688 8.824-19.688 19.688 0 10.863 8.825 19.687 19.688 19.687s19.688-8.824 19.688-19.687c0-10.864-8.825-19.688-19.688-19.688zm0 36.563c-9.299 0-16.875-7.577-16.875-16.875 0-9.3 7.576-16.875 16.875-16.875s16.875 7.576 16.875 16.875S54.299 71.016 45 71.016z" fill="#FF9401"/><path d="M45 44.297c-5.432 0-9.844 4.412-9.844 9.844 0 5.431 4.412 9.843 9.844 9.843 5.432 0 9.844-4.412 9.844-9.843 0-5.432-4.412-9.844-9.844-9.844zm0 16.875a7.03 7.03 0 0 1-7.031-7.031A7.03 7.03 0 0 1 45 47.109a7.03 7.03 0 0 1 7.031 7.032A7.03 7.03 0 0 1 45 61.17zM25.313 45.703V35.86a1.41 1.41 0 0 0-1.407-1.406A1.41 1.41 0 0 0 22.5 35.86v5.625h-.703V35.86a1.41 1.41 0 0 0-1.406-1.406 1.41 1.41 0 0 0-1.407 1.406v5.625h-.703V35.86a1.41 1.41 0 0 0-1.406-1.406 1.41 1.41 0 0 0-1.406 1.406v9.844a2.82 2.82 0 0 0 2.812 2.813h.703v23.923a1.41 1.41 0 0 0 1.407 1.407 1.41 1.41 0 0 0 1.406-1.407V48.516H22.5a2.81 2.81 0 0 0 2.813-2.813zM22.5 44.297v1.424h-4.219v-1.406H22.5v-.018zM66.094 72.44a1.41 1.41 0 0 0 1.406 1.406 1.41 1.41 0 0 0 1.406-1.407V56.953h2.813a1.41 1.41 0 0 0 1.406-1.406V40.078a5.63 5.63 0 0 0-5.625-5.625 1.41 1.41 0 0 0-1.406 1.406v36.58zm4.219-32.362v14.063h-1.407V37.652a2.8 2.8 0 0 1 1.406 2.426z" fill="#FF9401"/></svg>