<svg width="35" height="35" fill="none" xmlns="http://www.w3.org/2000/svg"><circle cx="17.5" cy="17.5" r="17.5" fill="#fff"/><path d="M25.633 13.963c.013.174.013.347.013.52 0 5.305-4.053 11.417-11.46 11.417-2.282 0-4.402-.659-6.186-1.802.324.037.636.05.973.05a8.09 8.09 0 0 0 5.001-1.715 4.047 4.047 0 0 1-2.33-.79 4.021 4.021 0 0 1-1.437-1.992c.249.037.499.062.761.062a4.3 4.3 0 0 0 1.061-.136 4.03 4.03 0 0 1-2.321-1.394 4.001 4.001 0 0 1-.909-2.544v-.05c.537.298 1.16.484 1.82.51a4.012 4.012 0 0 1-1.796-3.342c0-.745.199-1.428.548-2.024a11.449 11.449 0 0 0 3.705 2.978c1.431.723 2.999 1.14 4.601 1.22a4.542 4.542 0 0 1-.1-.919 3.994 3.994 0 0 1 1.18-2.837A4.027 4.027 0 0 1 21.604 10c1.16 0 2.207.484 2.943 1.267a7.978 7.978 0 0 0 2.556-.97c-.3.928-.93 1.714-1.771 2.212a8.1 8.1 0 0 0 2.319-.621 8.627 8.627 0 0 1-2.019 2.075z" fill="#2E2E2E"/></svg>